<svg id="Layer_1" data-name="Layer 1" xmlns="http://www.w3.org/2000/svg" viewBox="0 0 294.43 215.05">
  <defs>
    <style>
      .cls-1 {
        fill: #6bcab9;
        stroke: #010f0c;
      }

      .cls-1, .cls-2 {
        stroke-miterlimit: 10;
        stroke-width: 2px;
      }

      .cls-2 {
        fill: none;
        stroke: #1ca68f;
      }
    </style>
  </defs>
  <title>slide2</title>
  <path class="cls-1" d="M218,390s28-1,45-1c66.41-3.78,91.22-19,105-39,22-32,28.17-55.14,49-96,21.28-41.74,55.75-54.59,70.65-62.17A180.33,180.33,0,0,1,508,183a177.06,177.06,0,0,0-20.46-3.93c-1.84-.25-7.91-1-21.8-1.6-7.09-.29-16.52-.55-27.74-.47,0,0-47.61,26.78-61,59-14.05,33.81-27.53,72.43-55,86-37.87,18.7-102,12-102,12Z" transform="translate(-216.96 -175.99)"/>
  <path class="cls-2" d="M450,180c-9.95,5.66-31.94,19.05-45,34-15.74,18-18.33,30.61-34,58-15.45,27-24.81,43.39-39,55-10.08,8.25-45.54,24.15-106,13" transform="translate(-216.96 -175.99)"/>
  <path class="cls-2" d="M492,184c-9.51,4.56-34.81,11.56-49,25-21.8,20.64-29,33-48,70-18.78,36.57-31,66.09-40,75-18.54,18.32-53.7,35.17-127,25" transform="translate(-216.96 -175.99)"/>
</svg>
