<svg id="Layer_1" data-name="Layer 1" xmlns="http://www.w3.org/2000/svg" viewBox="0 0 332.65 214.02">
  <defs>
    <style>
      .cls-1 {
        fill: #6bcab9;
        stroke: #010f0c;
      }

      .cls-1, .cls-2 {
        stroke-miterlimit: 10;
        stroke-width: 2px;
      }

      .cls-2 {
        fill: none;
        stroke: #1ca68f;
      }
    </style>
  </defs>
  <title>Untitled-1</title>
  <path class="cls-1" d="M508,183a180.33,180.33,0,0,0-20.35,8.83c-14.9,7.58-49.37,20.43-70.65,62.17-20.83,40.86-27,64-49,96-13.78,20-38.59,35.22-105,39H183l-2-56s103.13,7.7,141-11c27.47-13.57,40.95-52.19,55-86,13.39-32.22,61-59,61-59Z" transform="translate(-179.96 -175.98)"/>
  <path class="cls-2" d="M450,180c-9.95,5.66-31.94,19.05-45,34-15.74,18-18.33,30.61-34,58-15.45,27-19.63,37.46-33,50-16,15-89.54,26.15-150,15" transform="translate(-179.96 -175.98)"/>
  <path class="cls-2" d="M492,184c-9.51,4.56-34.81,11.56-49,25-21.8,20.64-29,33-48,70-18.78,36.57-25,63-44,78-20.46,16.15-85.7,32.17-159,22" transform="translate(-179.96 -175.98)"/>
</svg>
